<svg width="102" height="19" viewBox="0 0 102 19" fill="none" xmlns="http://www.w3.org/2000/svg">
<path d="M7.5473 18.2847H10.3484L17.8957 0H14.4462L8.9997 13.9534L3.52726 0H0L7.5473 18.2847Z" fill="black"/>
<path d="M21.008 18.155H34.5983V15.3021H24.198V10.4262H33.3015V7.57324H24.198V2.85293H34.4686V0H21.008V18.155Z" fill="black"/>
<path d="M38.3829 18.155H51.1173V15.2502H41.573V0H38.3829V18.155Z" fill="black"/>
<path d="M57.4432 18.2847H60.2443L67.7916 0H64.3421L58.8956 13.9534L53.4232 0H49.8959L57.4432 18.2847Z" fill="black"/>
<path d="M70.9039 18.155H84.4942V15.3021H74.094V10.4262H83.1974V7.57324H74.094V2.85293H84.3645V0H70.9039V18.155Z" fill="black"/>
<path d="M92.7397 18.155H95.9558V2.95668H101.714V0H86.982V2.95668H92.7397V18.155Z" fill="black"/>
</svg>
