<svg width="89" height="9" viewBox="0 0 89 9" fill="none" xmlns="http://www.w3.org/2000/svg">
<path d="M0.552277 8.74457H1.9794V2.7741L4.56239 6.69073H4.60957L7.21614 2.75021V8.74457H8.66686V0.385906H7.12178L4.60957 4.33836L2.09735 0.385906H0.552277V8.74457Z" fill="black"/>
<path d="M10.0841 8.74457H11.5702L12.4194 6.72655H16.3234L17.1608 8.74457H18.6941L15.0614 0.326201H13.7168L10.0841 8.74457ZM12.9502 5.42499L14.3655 2.08152L15.7926 5.42499H12.9502Z" fill="black"/>
<path d="M20.1099 8.74457H21.537V2.79798L26.0897 8.74457H27.3045V0.385906H25.8774V6.16533L21.4544 0.385906H20.1099V8.74457Z" fill="black"/>
<path d="M28.7203 8.74457H30.2064L31.0556 6.72655H34.9595L35.7969 8.74457H37.3302L33.6975 0.326201H32.353L28.7203 8.74457ZM31.5863 5.42499L33.0017 2.08152L34.4288 5.42499H31.5863Z" fill="black"/>
<path d="M42.155 8.88786C43.6175 8.88786 44.7851 8.29082 45.599 7.5863V4.07566H42.0842V5.35334H44.1954V6.91761C43.6883 7.29972 42.9806 7.55048 42.2022 7.55048C40.5156 7.55048 39.3951 6.28474 39.3951 4.56524C39.3951 2.94127 40.5509 1.59194 42.0724 1.59194C43.1221 1.59194 43.7472 1.93823 44.3841 2.48751L45.3041 1.377C44.4549 0.648607 43.5703 0.242615 42.1314 0.242615C39.6428 0.242615 37.8736 2.22481 37.8736 4.56524C37.8736 7.02507 39.572 8.88786 42.155 8.88786Z" fill="black"/>
<path d="M47.4882 8.74457H53.6685V7.43107H48.9389V5.18617H53.0788V3.87266H48.9389V1.69941H53.6095V0.385906H47.4882V8.74457Z" fill="black"/>
<path d="M55.3895 8.74457H56.8167V2.7741L59.3997 6.69073H59.4468L62.0534 2.75021V8.74457H63.5041V0.385906H61.9591L59.4468 4.33836L56.9346 0.385906H55.3895V8.74457Z" fill="black"/>
<path d="M65.6291 8.74457H71.8093V7.43107H67.0798V5.18617H71.2196V3.87266H67.0798V1.69941H71.7504V0.385906H65.6291V8.74457Z" fill="black"/>
<path d="M73.5304 8.74457H74.9576V2.79798L79.5102 8.74457H80.725V0.385906H79.2979V6.16533L74.875 0.385906H73.5304V8.74457Z" fill="black"/>
<path d="M84.8771 8.74457H86.3396V1.74717H88.958V0.385906H82.2588V1.74717H84.8771V8.74457Z" fill="black"/>
</svg>
